<svg xmlns="http://www.w3.org/2000/svg" viewBox="0 0 254 166"><path d="M 3.527 7.703 C 5.591 11.441, 7.815 15.175, 8.470 16 C 9.126 16.825, 10.882 19.638, 12.373 22.250 L 15.084 27 49.792 27.015 C 87.633 27.031, 87.973 27.078, 91.286 32.750 C 93.094 35.846, 93.180 38.969, 93.150 100.997 L 93.120 166 106.092 166 L 119.065 166 118.782 96.250 L 118.500 26.500 115.883 21 C 111.849 12.520, 105.755 6.834, 97 3.379 C 92.968 1.788, 87.674 1.567, 46.138 1.255 L -0.225 0.906 3.527 7.703 M 163.500 1.701 C 150.736 4.692, 143.120 10.482, 138.117 21 L 135.500 26.500 135.218 96.250 L 134.935 166 147.908 166 L 160.880 166 160.850 100.997 C 160.820 38.969, 160.906 35.846, 162.714 32.750 C 166.027 27.078, 166.367 27.031, 204.208 27.015 L 238.916 27 241.627 22.250 C 243.118 19.638, 244.874 16.825, 245.530 16 C 246.185 15.175, 248.398 11.463, 250.447 7.750 L 254.172 1 209.836 1.116 C 185.451 1.180, 164.600 1.443, 163.500 1.701" stroke="none" fill="#ffffff" fill-rule="evenodd"/><path d="M 31 51.359 C 31 52.127, 31.675 53.315, 32.500 54 C 33.325 54.685, 34 55.616, 34 56.069 C 34 57.306, 41.172 69.387, 42.418 70.248 C 43.013 70.659, 51.150 70.884, 60.500 70.748 L 77.500 70.500 77.500 60.500 L 77.500 50.500 54.250 50.232 C 34.892 50.008, 31 50.197, 31 51.359 M 176.427 51.329 C 176.147 52.060, 176.048 56.673, 176.209 61.579 L 176.500 70.500 193.500 70.748 C 202.850 70.884, 210.987 70.659, 211.582 70.248 C 212.828 69.387, 220 57.306, 220 56.069 C 220 55.616, 220.675 54.685, 221.500 54 C 222.325 53.315, 223 52.135, 223 51.378 C 223 49.380, 177.194 49.332, 176.427 51.329 M 25 59.227 C 25 66.879, 25.913 68, 32.150 68 L 36.899 68 32.618 60.750 C 26.918 51.097, 25 50.714, 25 59.227 M 224.669 55.250 C 223.912 56.487, 221.880 59.862, 220.155 62.750 L 217.018 68 221.809 68 C 228.076 68, 229 66.882, 229 59.300 C 229 52.434, 227.342 50.883, 224.669 55.250 M 52.185 76.750 C 52.377 77.760, 53.586 78.625, 55.044 78.796 C 56.982 79.022, 58.136 80.281, 59.991 84.188 C 63.664 91.924, 73.816 98.054, 85.640 99.674 C 89.581 100.214, 90 100.535, 90 103.013 C 90 106.392, 92.450 108.876, 93.383 106.444 C 94.290 104.082, 94.136 87.202, 93.202 86.625 C 91.827 85.775, 90.216 87.398, 89.851 90 C 89.549 92.152, 89.012 92.484, 86 92.383 C 79.684 92.171, 74.354 90.064, 69.640 85.914 C 64.537 81.422, 63.821 79.307, 67.240 78.820 C 68.472 78.644, 69.630 77.713, 69.813 76.750 C 70.111 75.187, 69.171 75, 61 75 C 52.829 75, 51.889 75.187, 52.185 76.750 M 184.187 76.750 C 184.370 77.713, 185.528 78.644, 186.760 78.820 C 190.179 79.307, 189.463 81.422, 184.360 85.914 C 179.646 90.064, 174.316 92.171, 168 92.383 C 164.988 92.484, 164.451 92.152, 164.149 90 C 163.784 87.398, 162.173 85.775, 160.798 86.625 C 159.864 87.202, 159.710 104.082, 160.617 106.444 C 161.550 108.876, 164 106.392, 164 103.013 C 164 100.535, 164.419 100.214, 168.360 99.674 C 180.184 98.054, 190.336 91.924, 194.009 84.188 C 195.864 80.281, 197.018 79.022, 198.956 78.796 C 200.414 78.625, 201.623 77.760, 201.815 76.750 C 202.111 75.187, 201.171 75, 193 75 C 184.829 75, 183.889 75.187, 184.187 76.750" stroke="none" fill="#03a7c6" fill-rule="evenodd"/></svg>